<?xml version="1.0" standalone="no"?>
<!DOCTYPE svg PUBLIC "-//W3C//DTD SVG 20010904//EN"
 "http://www.w3.org/TR/2001/REC-SVG-20010904/DTD/svg10.dtd">
<svg version="1.0" xmlns="http://www.w3.org/2000/svg"
 width="1020.000000pt" height="1020.000000pt" viewBox="0 0 1020.000000 1020.000000"
 preserveAspectRatio="xMidYMid meet">
<metadata>
Created by potrace 1.14, written by Peter Selinger 2001-2017
</metadata>
<g transform="translate(0.000000,1020.000000) scale(0.100000,-0.100000)"
fill="#000000" stroke="none">
<path d="M4525 9724 c-191 -14 -317 -27 -425 -45 -909 -145 -1720 -551 -2374
-1189 -741 -723 -1173 -1599 -1303 -2645 -25 -202 -25 -761 0 -964 10 -79 20
-156 23 -171 5 -25 -1 -32 -75 -84 -133 -93 -230 -204 -283 -322 -27 -63 -58
-215 -58 -291 0 -136 38 -232 124 -311 51 -46 141 -92 181 -92 30 0 22 -20
-34 -84 -142 -165 -215 -362 -167 -455 52 -100 185 -94 475 21 41 16 77 25 81
21 4 -4 17 -37 30 -73 12 -36 35 -94 51 -129 16 -35 28 -65 27 -66 -2 -2 -32
-10 -68 -19 -142 -36 -265 -120 -324 -220 -61 -104 -75 -269 -32 -363 50 -106
161 -179 366 -243 123 -38 192 -71 214 -102 12 -17 16 -49 16 -140 0 -332 84
-501 277 -554 81 -22 216 -15 336 17 71 19 90 21 96 10 20 -31 162 -182 228
-241 246 -219 618 -386 1043 -469 426 -83 1015 -85 1555 -5 509 75 1171 247
1654 430 63 24 116 42 117 41 1 -1 11 -32 24 -70 46 -142 172 -281 312 -346
101 -47 163 -61 271 -61 281 0 523 192 593 470 22 89 15 208 -16 275 -31 63
-84 116 -149 147 l-51 24 92 49 c368 192 744 422 1058 645 863 613 1352 1228
1492 1875 18 82 22 134 22 290 1 201 -9 276 -58 430 l-23 73 51 60 c167 197
223 444 150 659 -17 49 -74 146 -93 157 -21 14 -10 24 32 31 63 10 140 50 160
84 23 39 22 127 -2 196 -44 126 -193 294 -346 391 -69 44 -74 49 -67 73 4 14
7 73 7 131 -1 89 -6 120 -33 205 -117 372 -324 573 -642 624 -87 14 -256 13
-360 -3 -47 -7 -88 -12 -91 -10 -4 2 -14 27 -24 56 -38 118 -151 306 -322 534
-642 859 -1576 1451 -2621 1664 -289 59 -497 80 -807 84 -143 2 -282 2 -310 0z
m430 -184 c411 -21 747 -82 1115 -202 784 -255 1471 -736 1977 -1386 142 -182
303 -425 343 -517 76 -177 62 -419 -34 -588 -84 -147 -346 -493 -419 -553
-123 -100 -585 -373 -897 -530 -960 -481 -1864 -752 -2820 -846 -209 -20 -844
-17 -1035 5 -491 58 -702 123 -957 294 -332 223 -570 593 -639 991 -31 185
-25 513 17 807 64 454 185 856 380 1263 40 83 69 152 65 152 -9 0 -229 -225
-313 -320 -572 -654 -928 -1481 -1024 -2380 -44 -407 -5 -1034 76 -1235 31
-80 86 -172 129 -219 l26 -29 -32 19 c-43 24 -132 116 -176 182 -88 129 -126
316 -148 718 -29 550 65 1146 263 1669 374 984 1093 1785 2028 2259 521 265
1097 418 1675 445 88 5 171 9 185 9 14 1 111 -3 215 -8z m4253 -2384 c111 -56
189 -144 257 -289 78 -165 109 -343 72 -413 -23 -44 -77 -89 -155 -128 -118
-59 -279 -102 -750 -200 -352 -74 -417 -91 -517 -139 -113 -54 -175 -141 -175
-244 0 -16 13 -82 30 -148 53 -210 50 -339 -12 -515 -41 -117 -69 -167 -121
-226 -124 -138 -324 -165 -727 -99 -198 32 -375 38 -431 13 -134 -59 -172
-187 -116 -385 45 -156 52 -204 51 -348 -1 -167 -16 -243 -77 -365 -75 -153
-219 -273 -377 -315 -64 -17 -207 -19 -300 -5 -89 15 -282 81 -578 199 -313
126 -383 145 -527 145 -129 1 -188 -15 -280 -77 -75 -51 -144 -120 -218 -218
-151 -202 -347 -325 -574 -360 -91 -14 -250 -2 -358 26 -91 24 -231 97 -320
168 -85 68 -263 256 -230 243 64 -25 187 -38 305 -33 258 11 461 105 646 300
l89 93 155 33 c85 18 257 60 382 93 l226 61 199 -81 c388 -158 526 -196 698
-196 131 0 205 17 325 75 109 54 236 177 292 284 76 148 114 334 103 504 l-6
86 98 53 c154 82 327 186 528 317 80 53 80 53 195 63 182 17 282 62 380 169
52 57 115 176 146 274 16 52 27 66 151 180 74 68 167 160 206 204 39 44 105
116 147 160 77 81 219 256 326 400 l60 80 154 40 c255 66 368 115 452 193 81
76 93 107 93 245 0 64 3 117 8 117 4 0 38 -15 75 -34z m-558 0 c0 -8 -4 -18
-10 -21 -5 -3 -10 3 -10 14 0 12 5 21 10 21 6 0 10 -6 10 -14z m1054 -953 c91
-61 193 -163 234 -234 45 -79 43 -86 -25 -94 -546 -63 -948 -168 -1425 -374
-65 -28 -154 -69 -199 -91 -45 -23 -83 -39 -86 -36 -3 2 -9 35 -13 73 -5 37
-21 121 -35 187 -14 65 -23 127 -20 137 15 48 161 94 530 169 550 112 773 181
908 280 23 17 45 30 50 30 5 0 41 -21 81 -47z m51 -611 c25 -18 59 -53 76 -79
106 -168 67 -388 -100 -565 -79 -85 -158 -138 -339 -227 -78 -39 -159 -86
-181 -106 -82 -75 -106 -202 -95 -521 8 -221 0 -259 -63 -314 -69 -61 -146
-77 -443 -95 -299 -18 -438 -37 -552 -75 -225 -76 -310 -149 -611 -535 -166
-212 -258 -307 -353 -363 -64 -38 -165 -72 -213 -72 -29 0 -35 33 -26 143 26
338 156 557 450 754 109 73 246 148 574 317 372 192 550 292 745 424 626 420
855 748 844 1207 l-3 130 95 16 c106 17 119 15 195 -39z m-53 -1132 c17 -112
10 -157 -37 -261 -304 -673 -1079 -1360 -2265 -2007 -175 -96 -532 -272 -551
-272 -5 0 -7 11 -3 24 9 38 -14 173 -46 265 -16 47 -26 89 -22 92 4 4 63 14
132 23 538 71 759 220 1120 761 114 170 159 219 239 260 78 39 148 53 328 65
233 16 355 51 445 128 18 15 57 43 85 61 98 62 156 153 176 279 5 37 23 105
39 151 15 46 42 138 59 205 44 173 68 206 193 253 86 32 99 28 108 -27z
m-9102 -275 c55 -28 53 -107 -5 -294 l-39 -124 -72 6 c-188 16 -263 81 -264
228 0 59 14 167 24 176 5 5 182 20 259 22 44 1 78 -4 97 -14z m1301 -409 c90
-13 227 -30 304 -37 136 -12 141 -13 176 -44 20 -18 64 -52 98 -76 54 -38 59
-44 39 -47 -76 -8 -132 -27 -185 -63 -32 -22 -148 -132 -258 -243 -223 -227
-301 -288 -433 -337 -78 -29 -98 -33 -197 -33 -184 0 -283 46 -301 140 -9 46
6 142 38 244 l23 74 77 45 c100 60 219 164 338 295 52 58 100 105 106 105 6 1
84 -10 175 -23z m7586 -253 c-313 -534 -862 -1036 -1682 -1538 -319 -196 -756
-428 -1051 -559 l-98 -43 -63 21 c-35 11 -63 23 -63 26 0 4 26 17 58 30 289
118 712 329 1042 518 272 156 633 391 855 557 389 291 755 648 955 934 24 34
45 61 47 61 2 0 2 -3 0 -7z m-4514 -179 c40 -9 171 -52 292 -96 347 -125 540
-166 740 -155 123 7 263 41 363 87 55 26 65 35 82 76 11 26 23 45 25 42 2 -2
-2 -53 -10 -114 -42 -312 -2 -656 104 -906 101 -240 113 -357 41 -420 -24 -22
-40 -28 -76 -28 l-46 0 8 33 c13 49 11 207 -4 258 -13 45 -14 46 -70 57 -87
18 -175 75 -282 184 -96 97 -128 116 -174 104 -13 -3 -75 -60 -137 -127 -123
-131 -201 -193 -301 -238 -115 -52 -188 -65 -353 -65 -136 0 -158 3 -231 27
-45 15 -117 50 -160 78 -141 91 -242 209 -560 650 l-33 46 32 23 c76 56 159
136 305 294 107 116 169 175 197 187 51 24 152 25 248 3z m1251 -1609 l77 -50
-41 -17 c-22 -9 -115 -44 -207 -77 -889 -316 -1647 -447 -1999 -346 -142 41
-238 171 -212 287 36 163 257 255 486 203 37 -9 103 -36 147 -60 322 -178 463
-226 675 -226 290 -1 519 108 775 368 l100 102 61 -67 c34 -37 96 -89 138
-117z m-4246 -436 c151 -135 399 -272 642 -352 720 -240 1714 -200 2834 113
243 68 652 204 827 274 15 6 15 2 0 -53 l-15 -60 -96 -37 c-617 -236 -1316
-410 -1920 -476 -276 -30 -827 -33 -1045 -5 -458 59 -822 194 -1090 402 -84
66 -225 205 -225 223 0 9 12 17 28 21 2 1 29 -22 60 -50z m5214 -49 c90 -25
126 -89 108 -192 -33 -188 -189 -341 -361 -355 l-64 -5 45 27 c62 36 115 89
161 159 22 33 39 62 39 66 0 3 -33 -4 -72 -18 -163 -54 -324 -9 -450 127 -56
60 -126 166 -116 176 1 2 37 -8 78 -23 109 -38 233 -37 350 1 126 42 220 54
282 37z"/>
<path d="M6937 8169 c-9 -5 -24 -24 -33 -40 -47 -91 82 -173 146 -92 29 37 26
79 -9 114 -31 30 -71 37 -104 18z"/>
<path d="M6314 7415 c-30 -12 -54 -50 -54 -86 0 -31 53 -79 88 -79 36 0 78 31
86 65 5 20 -15 95 -26 95 -2 0 -17 4 -34 9 -20 6 -40 5 -60 -4z"/>
<path d="M7785 7325 c-35 -34 -34 -93 0 -125 56 -53 145 -15 145 62 0 52 -35
88 -85 88 -25 0 -44 -8 -60 -25z"/>
<path d="M4124 6626 c-60 -51 -21 -146 58 -146 79 0 117 86 63 144 -32 34 -83
35 -121 2z"/>
<path d="M6166 6059 c-34 -40 -33 -74 3 -110 71 -70 179 0 141 92 -15 36 -37
49 -83 49 -27 0 -41 -7 -61 -31z"/>
<path d="M2735 5811 c-55 -23 -74 -85 -42 -135 44 -67 157 -31 157 50 0 59
-64 106 -115 85z"/>
</g>
</svg>
